<?xml version="1.0" encoding="utf-8"?>
<!-- Generator: Adobe Illustrator 24.0.1, SVG Export Plug-In . SVG Version: 6.00 Build 0)  -->
<svg version="1.1" id="Layer_1" xmlns="http://www.w3.org/2000/svg" xmlns:xlink="http://www.w3.org/1999/xlink" x="0px" y="0px"
	 viewBox="0 0 2396 500" style="enable-background:new 0 0 2396 500;" xml:space="preserve">
<path d="M70,401h109l93-354c59,0,113-3,145-42l-8-5c-12,16-44,28-59,31c-32,6-88,5-141,1c-45-3-80-5-105-5C60,27,23,36,0,70l12,5
	c15-32,53-39,94-39c16,0,36,1,61,3L70,401z M586,167l-90,328h96l23-98c11,6,37,11,50,11c65,0,117-52,142-113c13-32,19-63,19-92
	c0-50-19-86-73-86c-34,0-59,26-77,60c5-29-3-60-52-60c-36,0-64,20-76,54l-15,42h10l12-32c9-23,18-34,26-34S588,160,586,167z
	 M2093,191c9-44,0-74-49-74c-36,0-64,20-76,54l-15,42h10l12-32c9-23,18-34,28-34s9,12,6,22l-65,231h94l21-80c14-53,34-93,49-121
	c16-29,30-44,43-44c9,0,6,7,1,23l-64,222h95l22-75c18-60,36-104,53-130c17-27,31-40,42-40c5,0,5,11,0,23l-46,138c-5,16-8,30-8,42
	c0,29,20,50,57,50c38,0,64-19,76-55l13-39h-10l-11,30c-8,22-18,33-28,33s-11-10-7-22l53-158c5-15,7-28,7-38c0-28-16-42-48-42
	c-22,0-42,6-60,19c-17,13-33,37-49,71l3-10c4-15,6-27,6-38c0-28-16-42-47-42c-58,0-87,38-115,98L2093,191z M1943,106
	c-30,12-67,26-97,26l-5,18c-2-20-18-33-38-33c-57,0-113,62-144,121c-19,36-26,70-26,103c0,44,22,67,65,67c41,0,67-21,81-61v10
	c0,31,17,51,55,51s64-19,76-55l13-39h-10l-11,30c-8,22-18,33-28,33c-11,0-10-9-6-22L1943,106z M713,284c-16,48-46,106-82,106
	c-4,0-9-1-14-2l48-170c12-29,31-66,50-66c11,0,12,23,12,43C727,224,723,254,713,284z M1018,264c-14,46-51,133-76,133
	c-9,0-11-10-11-30c0-31,6-65,17-103c14-49,52-137,78-137c6,0,9,15,9,31C1035,191,1029,227,1018,264z M1123,207c0-56-31-90-95-90
	c-108,0-185,93-185,200c0,60,34,91,95,91C1046,408,1123,314,1123,207z M1835,166l-38,127c-11,36-28,78-48,78c-12,0-12-11-12-28
	c0-30,5-61,15-92c14-42,47-108,73-108C1833,143,1836,154,1835,166z M1546,176c18-39,45-63,76-63s53,22,53,53c0,37-27,66-62,66
	c-28,0-39-17-39-39c0-35,31-63,60-65c-5-3-10-5-17-5c-18,0-37,16-49,33c-18,26-32,62-43,93l-39,149h-94l54-190c13-47,4-80-21-80
	c-16,0-36,16-54,32l-5-8c26-30,81-62,120-62C1526,90,1556,126,1546,176z M1283,215c4-19,6-38,6-58c0-21-4-30-12-30
	c-16,0-29,35-33,60c-3,18-5,37-5,58s2,30,10,30C1269,275,1279,235,1283,215z M1378,178c0,52-50,87-106,104c-26,8-49,20-49,30
	s10,14,67,32c34,11,60,32,60,65c0,60-88,91-166,91c-44,0-105-12-105-41c0-28,61-38,89-41c16-2,49-7,64-13l6,8c-50,6-83,37-83,54
	c0,14,20,25,38,25c39,0,86-24,86-51c0-13-26-21-60-32s-79-25-79-50c0-33,50-53,104-74h-6c-49,0-88-17-88-61c0-62,69-107,141-107
	C1344,117,1378,136,1378,178z M514,168c0-34-14-51-41-51c-24,0-41,12-41,43c0,33,23,62,55,81c-14,39-32,75-56,109l-23-170
	c-6-42-22-63-63-63c-36,0-56,18-68,54l-13,39h10l10-29c6-18,15-34,22-34c6,0,8,7,11,23l43,263c-18,16-38,30-61,40
	c-18-31-40-47-66-47c-12,0-23,4-31,11c-7,8-11,17-11,28s4,19,11,26c8,6,19,9,33,9c9,0,19-1,31-4c24-6,48-17,73-34c24-16,47-37,70-64
	c29-35,53-74,74-118C503,237,514,199,514,168z"/>
</svg>
